<svg xmlns="http://www.w3.org/2000/svg" width="255" height="51.637" viewBox="0 0 255 51.637">
  <g id="Grupo_1" data-name="Grupo 1" transform="translate(-116.264 -249.607)">
    <path id="Caminho_1" data-name="Caminho 1" d="M190.242,313.013v-6.337h3.481v.635h-2.747v2.068h2.372v.644h-2.372v2.309h2.783v.68Zm8.294,0v-6.543h.1l4.244,4.96v-4.755h.734v6.544h-.1l-4.241-4.957v4.751Zm15.294-.435a7.381,7.381,0,0,1-1.252.491,4.156,4.156,0,0,1-1.1.159,3.134,3.134,0,0,1-2.357-.953,3.65,3.65,0,0,1,.014-4.865,3.179,3.179,0,0,1,2.376-.957,4.1,4.1,0,0,1,1.064.138,3.943,3.943,0,0,1,.977.409l-.048.8a4.643,4.643,0,0,0-1.029-.534,2.86,2.86,0,0,0-.963-.173,2.39,2.39,0,0,0-1.826.779,2.772,2.772,0,0,0-.725,1.97,2.714,2.714,0,0,0,.695,1.928,2.347,2.347,0,0,0,1.8.747,3.135,3.135,0,0,0,.79-.1,4.554,4.554,0,0,0,.832-.316v-1.631H211.17v-.653h2.659v2.759Zm4.751.435v-6.337h3.481v.635h-2.747v2.068h2.372v.644h-2.372v2.309H222.1v.68Zm8.294,0v-6.543h.1l4.244,4.96v-4.755h.734v6.544h-.1l-4.241-4.957v4.751Zm10.138,0v-6.337h.742v2.65h3.527v-2.65h.743v6.337h-.743v-3.008h-3.527v3.008Zm10.882-2.219h2.451L249.132,308l-1.236,2.793Zm-1.764,2.219,2.961-6.5h.091l2.953,6.5h-.817l-.708-1.611h-3l-.7,1.611Zm10.122,0v-6.337H257.6a3.586,3.586,0,0,1,2.022.472,1.557,1.557,0,0,1,.691,1.373,1.675,1.675,0,0,1-.451,1.175,2.037,2.037,0,0,1-1.207.616l2.3,2.7H260l-2.212-2.6H257v2.6Zm.742-3.186h.644a2.556,2.556,0,0,0,1.426-.329,1.087,1.087,0,0,0,.491-.96,1.026,1.026,0,0,0-.487-.944,3.07,3.07,0,0,0-1.556-.3H257v2.533Zm8.286,3.186v-6.337h.751v6.337Zm6.639-2.219h2.451L273.157,308l-1.236,2.793Zm-1.764,2.219,2.961-6.5h.091l2.954,6.5h-.817l-.708-1.611h-3l-.7,1.611Zm14.284-4.142a3.147,3.147,0,0,0,.676-.591.87.87,0,0,0,.2-.537.671.671,0,0,0-.227-.52.827.827,0,0,0-.578-.206.733.733,0,0,0-.533.2.7.7,0,0,0-.21.524,1.052,1.052,0,0,0,.175.509,3.264,3.264,0,0,0,.5.619Zm1.7,2.97-1.821-2.056a3.689,3.689,0,0,0-.935.788,1.271,1.271,0,0,0-.293.792,1.1,1.1,0,0,0,.373.853,1.35,1.35,0,0,0,.942.34,2.274,2.274,0,0,0,.885-.181,3.226,3.226,0,0,0,.85-.535Zm.451.5a4.389,4.389,0,0,1-1.112.661,3.028,3.028,0,0,1-1.117.22,2.118,2.118,0,0,1-1.45-.5,1.62,1.62,0,0,1-.564-1.276,2.008,2.008,0,0,1,.376-1.166,3.821,3.821,0,0,1,1.135-1.017,3.808,3.808,0,0,1-.57-.8,1.58,1.58,0,0,1-.18-.7,1.222,1.222,0,0,1,.4-.937,1.422,1.422,0,0,1,1.011-.37,1.488,1.488,0,0,1,1.051.395,1.289,1.289,0,0,1,.425.981,1.326,1.326,0,0,1-.27.79,3.093,3.093,0,0,1-.839.74l1.736,1.989a3.885,3.885,0,0,0,.368-.517,3.622,3.622,0,0,0,.267-.566l.591.245a4.032,4.032,0,0,1-.318.689,4.828,4.828,0,0,1-.462.659l1.013,1.155h-.886l-.6-.674Zm9.172-1.545h2.452L297,308l-1.237,2.793ZM294,313.013l2.961-6.5h.091l2.954,6.5h-.817l-.707-1.611h-3l-.7,1.611Zm10.122,0v-6.337h1.342a3.581,3.581,0,0,1,2.021.472,1.557,1.557,0,0,1,.691,1.373,1.675,1.675,0,0,1-.45,1.175,2.037,2.037,0,0,1-1.207.616l2.3,2.7h-.949l-2.212-2.6h-.8v2.6Zm.742-3.186h.644a2.557,2.557,0,0,0,1.426-.329,1.087,1.087,0,0,0,.491-.96,1.027,1.027,0,0,0-.487-.944,3.072,3.072,0,0,0-1.556-.3h-.517v2.533Zm13.356,4.914a4.642,4.642,0,0,1-.984-.136,6.045,6.045,0,0,1-1.034-.363c-.169-.076-.423-.2-.765-.377a11.112,11.112,0,0,0-1.713-.736l.267-.518a3.049,3.049,0,0,1-.987-1.169,3.533,3.533,0,0,1-.346-1.572,3.859,3.859,0,0,1,.164-1.131,3.317,3.317,0,0,1,.48-.972,3.093,3.093,0,0,1,1.091-.956,2.956,2.956,0,0,1,2.568-.092,3.085,3.085,0,0,1,1.005.716,3.227,3.227,0,0,1,.677,1.072,3.494,3.494,0,0,1,.236,1.267,3.723,3.723,0,0,1-.329,1.589,3.028,3.028,0,0,1-.959,1.171,3.153,3.153,0,0,1-.851.452,2.718,2.718,0,0,1-.9.159c-.052,0-.117,0-.2-.006s-.178-.013-.291-.023l-.03.072q.2.082.589.251a6.559,6.559,0,0,0,2.4.673h.056l-.147.627Zm-4.793-4.9a2.783,2.783,0,0,0,.676,1.91,2.2,2.2,0,0,0,3.333,0,3.062,3.062,0,0,0,0-3.826,2.2,2.2,0,0,0-3.334,0,2.78,2.78,0,0,0-.676,1.91Zm10.719-3.168v3.708a2.446,2.446,0,0,0,.45,1.6,1.64,1.64,0,0,0,1.333.54,1.594,1.594,0,0,0,1.315-.549,2.518,2.518,0,0,0,.446-1.616v-3.68h.68v3.8a2.9,2.9,0,0,1-.654,2.012,2.282,2.282,0,0,1-1.788.728,2.43,2.43,0,0,1-1.872-.709,2.828,2.828,0,0,1-.663-2.009v-3.825Zm9.218,6.337v-6.337h.751v6.337Zm7.265,0v-5.656h-2.237v-.681h5.236v.681H341.39v5.656Zm7.259,0v-6.337h3.482v.635h-2.748v2.068h2.372v.644h-2.372v2.309h2.784v.68Zm9.726,0v-5.656h-2.238v-.681h5.236v.681h-2.238v5.656Zm7.938-6.337v3.708a2.446,2.446,0,0,0,.451,1.6,1.638,1.638,0,0,0,1.332.54,1.6,1.6,0,0,0,1.316-.549,2.518,2.518,0,0,0,.445-1.616v-3.68h.681v3.8a2.9,2.9,0,0,1-.654,2.012,2.282,2.282,0,0,1-1.788.728,2.433,2.433,0,0,1-1.872-.709,2.828,2.828,0,0,1-.662-2.009v-3.825Zm9.209,6.337v-6.337H376.1a3.581,3.581,0,0,1,2.021.472,1.555,1.555,0,0,1,.692,1.373,1.675,1.675,0,0,1-.451,1.175,2.035,2.035,0,0,1-1.207.616l2.3,2.7h-.949l-2.212-2.6h-.8v2.6Zm.742-3.186h.644a2.556,2.556,0,0,0,1.426-.329,1.087,1.087,0,0,0,.491-.96,1.027,1.027,0,0,0-.487-.944,3.075,3.075,0,0,0-1.557-.3H375.5v2.533Zm9.083.967h2.451L385.823,308l-1.236,2.793Zm-1.764,2.219,2.961-6.5h.091l2.954,6.5h-.817l-.707-1.611h-3l-.7,1.611Z" transform="translate(-17.566 -13.498)" fill-rule="evenodd"/>
    <path id="Caminho_2" data-name="Caminho 2" d="M193.672,265.519h2.968c2.887,0,5.077-.524,6.585-1.578a5.229,5.229,0,0,0,2.266-4.581,4.963,4.963,0,0,0-2.252-4.518q-2.253-1.438-7.185-1.433h-2.383v12.109Zm-3.43,14.3V250.558h6.2a24.474,24.474,0,0,1,5.524.5,10.211,10.211,0,0,1,3.6,1.605,7.983,7.983,0,0,1,3.4,6.537,8.025,8.025,0,0,1-3.252,6.826q-3.254,2.428-9.189,2.431c-.434,0-.888,0-1.357-.007s-.971-.02-1.494-.034v11.406Zm32.1,0V250.558h16.077v2.934H225.733v9.547h10.953v2.976H225.733v10.663h12.854v3.141Zm31.139,0V249.607h.448l19.6,22.9V250.558h3.389V280.77h-.461l-19.583-22.89v21.939Zm39.652,0V250.558h16.076v2.934H296.524v9.547h10.953v2.976H296.524v10.663h12.854v3.141ZM327.7,276.6h3.6q6.3,0,9.823-3.017a11.758,11.758,0,0,0-.006-16.8q-3.533-3.038-9.816-3.038h-3.6V276.6Zm-3.43,3.223V250.558h6.4q8.2,0,12.867,3.913a13.258,13.258,0,0,1,4.663,10.718,14.1,14.1,0,0,1-1.839,7.233,14.315,14.315,0,0,1-5.394,5.2,15.075,15.075,0,0,1-4.4,1.68,28.4,28.4,0,0,1-5.9.517Zm39.239-14.63a12.834,12.834,0,0,0,3.127,8.817,10.144,10.144,0,0,0,15.388.015,14.129,14.129,0,0,0,0-17.662,10.157,10.157,0,0,0-15.4.007,12.844,12.844,0,0,0-3.12,8.824Zm-3.513,0a17.172,17.172,0,0,1,1.068-6.1,15.5,15.5,0,0,1,3.148-5.063,14.052,14.052,0,0,1,4.636-3.272,13.649,13.649,0,0,1,5.5-1.151,13.444,13.444,0,0,1,5.47,1.151,14.3,14.3,0,0,1,4.642,3.313,15.161,15.161,0,0,1,3.148,5.049,17.132,17.132,0,0,1,1.068,6.068,17.693,17.693,0,0,1-.737,5.166,14.726,14.726,0,0,1-2.19,4.422,14.45,14.45,0,0,1-5.056,4.408,13.554,13.554,0,0,1-11.84.427,14,14,0,0,1-4.642-3.306,15.075,15.075,0,0,1-3.155-5.043A17.022,17.022,0,0,1,360,265.188Z" transform="translate(-17.566)" fill-rule="evenodd"/>
    <path id="Caminho_3" data-name="Caminho 3" d="M135.142,287.674h15.011V250.567H126.941v3.2h20.012v30.707h-8.612v-25.24l-3.2,1.844v26.6Zm-3.867-26.01v26.6l-3.2,1.844v-25.24h-8.612v30.707h20.012v3.2H116.264V261.664Z" transform="translate(0 -0.228)" fill-rule="evenodd"/>
  </g>
</svg>
